<svg id="refresh" xmlns="http://www.w3.org/2000/svg" width="28" height="29" viewBox="0 0 28 29">
  <g id="Group_109" data-name="Group 109">
    <g id="Group_108" data-name="Group 108" transform="translate(0 0)">
      <path id="Path_84" data-name="Path 84" d="M38.654,4.242a15.168,15.168,0,0,0-21.042,0,1.239,1.239,0,0,0,0,1.783,1.317,1.317,0,0,0,1.829,0,12.531,12.531,0,0,1,17.384,0,11.788,11.788,0,0,1,0,16.95,12.541,12.541,0,0,1-16.672.642l.531-.518a.938.938,0,0,0-.435-1.582l-4.023-1.051a.959.959,0,0,0-1.188,1.158l1.078,3.922a.98.98,0,0,0,1.623.424l.581-.566a15.177,15.177,0,0,0,20.334-.646A14.268,14.268,0,0,0,38.654,4.242Z" transform="translate(-15.006 0)" fill="#fff"/>
    </g>
  </g>
  <g id="Group_111" data-name="Group 111" transform="translate(11.17 7.378)">
    <g id="Group_110" data-name="Group 110" transform="translate(0)">
      <path id="Path_85" data-name="Path 85" d="M222.874,148.776H219.16v-6.329a1.136,1.136,0,0,0-2.273,0v7.465a1.136,1.136,0,0,0,1.136,1.136h4.851a1.136,1.136,0,1,0,0-2.273Z" transform="translate(-216.887 -141.311)" fill="#fff"/>
    </g>
  </g>
</svg>
