<svg id="Component_17_1" data-name="Component 17 – 1" xmlns="http://www.w3.org/2000/svg" width="180" height="180" viewBox="0 0 180 180">
  <circle id="Ellipse_27" data-name="Ellipse 27" cx="90" cy="90" r="90" fill="#b4b4b4"/>
  <g id="_007-rich" data-name="007-rich" transform="translate(54.534 55.001)">
    <path id="Path_34" data-name="Path 34" d="M17.256,11.679a3.38,3.38,0,0,0,3.179,2.294H29.09a3.38,3.38,0,0,0,3.179-2.294c.452-1.311,1.872-4.245,2.973-5.177a3.482,3.482,0,0,0,1.181-3.31A3.314,3.314,0,0,0,34.178.651c-3.5-1.159-6.6-.769-8.965,1.126a1.117,1.117,0,0,1-1.421,0C21.422-.116,18.324-.506,14.826.652A3.314,3.314,0,0,0,12.58,3.194,3.482,3.482,0,0,0,13.761,6.5,18.339,18.339,0,0,1,17.256,11.679ZM14.867,3.637a.99.99,0,0,1,.692-.773,9.665,9.665,0,0,1,3.027-.537A5.835,5.835,0,0,1,22.337,3.6a3.446,3.446,0,0,0,4.33,0c1.748-1.4,4.027-1.644,6.778-.734a.989.989,0,0,1,.691.773,1.135,1.135,0,0,1-.4,1.089c-1.78,1.507-3.37,5.329-3.669,6.195a1.049,1.049,0,0,1-.977.724H20.437a1.048,1.048,0,0,1-.977-.724,20.132,20.132,0,0,0-4.192-6.195A1.132,1.132,0,0,1,14.867,3.637Z" transform="translate(2.219 0)" fill="#fff"/>
    <path id="Path_35" data-name="Path 35" d="M34,14.163A1.165,1.165,0,0,0,32.837,13a1.138,1.138,0,0,0-.582.178A1.127,1.127,0,0,0,31.672,13H17.7a1.165,1.165,0,1,0,0,2.329H31.672v1.165H18.861a1.165,1.165,0,0,0,0,2.329H32.75a5.764,5.764,0,0,0,7.821-.341,1.164,1.164,0,1,0-1.647-1.647A3.574,3.574,0,0,1,34,16.849Z" transform="translate(2.962 2.059)" fill="#fff"/>
    <path id="Path_36" data-name="Path 36" d="M23.837,26c-7.467,0-16.305,9.47-16.305,17.47a1.165,1.165,0,1,0,2.329,0c0-6.65,7.837-15.14,13.976-15.14a1.165,1.165,0,0,0,0-2.329Z" transform="translate(1.163 4.081)" fill="#fff"/>
    <path id="Path_37" data-name="Path 37" d="M58.235,34.032a37.977,37.977,0,0,0-4.117.232,23,23,0,0,0-6.317-7.29l-8.479-5.661A10.574,10.574,0,0,0,33.145,19H23.989a10.281,10.281,0,0,0-6.24,2.107L9.415,27.069A22.409,22.409,0,0,0,2.88,55.017c1.783,3.452,4.76,7.623,8.831,7.894.319.021.642.032.967.032h22.91a9.49,9.49,0,0,0,15.392-1,25.644,25.644,0,0,0,7.255,1c5.662,0,11.774-1.768,11.774-4.626v-6.36h-.093a2,2,0,0,0,.093-.578V38.08C70.008,34.884,62.608,34.032,58.235,34.032Zm9.329,4.037a.82.82,0,0,1-.079.075c-.046.036-.1.074-.164.113-.078.049-.172.1-.274.15-.084.042-.171.084-.271.127-.124.054-.27.109-.419.164-.12.044-.241.088-.378.133-.172.056-.37.111-.569.165-.155.043-.308.087-.48.128-.224.054-.476.1-.726.154-.19.038-.37.077-.575.113-.283.049-.6.09-.91.132-.213.029-.412.061-.639.087-.371.042-.779.071-1.187.1-.207.015-.4.036-.612.049-.643.035-1.323.056-2.05.056s-1.407-.021-2.05-.056c-.217-.012-.405-.032-.612-.049-.407-.03-.816-.059-1.187-.1-.227-.025-.426-.058-.639-.087-.312-.042-.628-.083-.91-.132-.2-.036-.385-.075-.575-.113-.251-.051-.5-.1-.726-.154-.172-.042-.324-.084-.48-.128-.2-.054-.4-.11-.569-.165-.137-.044-.258-.089-.378-.133-.15-.056-.3-.11-.419-.164-.1-.043-.187-.086-.271-.127-.1-.052-.2-.1-.274-.15a1.763,1.763,0,0,1-.164-.113.7.7,0,0,1-.073-.069c.014-.012.024-.023.04-.036a1.91,1.91,0,0,1,.167-.116,3.74,3.74,0,0,1,.354-.2c.077-.038.152-.075.241-.113s.2-.081.307-.123c.127-.049.266-.1.413-.146.106-.035.208-.071.326-.105.264-.079.552-.156.869-.231.146-.035.316-.066.474-.1.192-.04.389-.08.6-.117.23-.04.473-.079.725-.116a32.724,32.724,0,0,1,4.81-.333C63.793,36.344,66.9,37.472,67.564,38.069ZM49.611,47.582c.106.044.215.086.326.128.2.079.414.153.631.226.114.038.226.075.343.111.248.076.5.147.765.215.092.024.18.051.273.073.357.088.722.169,1.1.241.078.015.159.027.238.042q.45.083.912.151c.132.02.265.036.4.053.265.035.531.066.8.094l.424.04c.278.024.557.043.837.059.125.007.25.016.374.022.4.017.8.029,1.2.029s.8-.012,1.2-.029c.127-.006.254-.015.381-.022.277-.016.553-.035.829-.058.145-.013.29-.027.433-.042q.4-.04.789-.093c.137-.017.273-.035.409-.054.3-.044.6-.095.9-.149.084-.015.168-.028.252-.044q.558-.109,1.09-.239c.1-.024.193-.052.291-.077.255-.067.506-.136.749-.212.119-.037.233-.075.349-.113q.323-.108.629-.224c.109-.042.219-.084.325-.128.212-.088.413-.18.608-.275.061-.03.131-.056.19-.086l.007,4.075c-.277.658-3.319,2.124-8.119,2.359-.431.015-.848.036-1.313.036a22.348,22.348,0,0,1-7.112-1.078l-.022-.035c-.139-.238-.286-.471-.445-.7-.024-.034-.051-.065-.075-.1-.147-.2-.3-.4-.463-.59-.049-.057-.1-.109-.153-.165-.145-.161-.291-.319-.446-.47-.08-.077-.166-.147-.248-.222-.137-.123-.271-.245-.413-.36-.014-.012-.026-.024-.04-.035,0-.452,0-1.457,0-2.721.06.031.132.058.193.088C49.2,47.4,49.4,47.5,49.611,47.582ZM34.056,60.629H12.678c-.272,0-.543-.009-.81-.027-2.314-.154-4.76-2.509-6.889-6.632a20.108,20.108,0,0,1,5.856-25.059l8.333-5.964a7.926,7.926,0,0,1,4.819-1.637h9.156a8.339,8.339,0,0,1,4.8,1.877l8.479,5.66a20.587,20.587,0,0,1,5.233,5.783,11.179,11.179,0,0,0-3.922,1.437l-.081.056a3.823,3.823,0,0,0-.411.337c-.053.05-.1.1-.148.153a2.625,2.625,0,0,0-.255.311,2.239,2.239,0,0,0-.153.28,2.14,2.14,0,0,0-.12.258,1.949,1.949,0,0,0-.1.618V48.59a9.361,9.361,0,0,0-1.229-.39c-.055-.014-.111-.029-.166-.042a9.469,9.469,0,0,0-1.262-.206c-.048,0-.1,0-.145-.007-.241-.019-.484-.036-.73-.036-.13,0-.254.014-.383.018-.1,0-.2.008-.3.015a9.649,9.649,0,0,0-1.236.16.165.165,0,0,0-.024,0c-.032.007-.061.02-.093.027a9.125,9.125,0,0,0-1.078.308c-.127.044-.254.088-.379.136a9.415,9.415,0,0,0-1.02.467c-.124.066-.239.142-.359.214-.23.138-.453.282-.669.438-.127.091-.255.18-.378.278a9.238,9.238,0,0,0-.79.7c-.109.109-.21.224-.313.339-.177.194-.345.4-.5.6-.086.113-.177.221-.258.338a9.123,9.123,0,0,0-.563.93c-.066.125-.126.252-.187.38a8.984,8.984,0,0,0-.359.871c-.031.087-.068.169-.1.257a9.025,9.025,0,0,0-.28,1.17c-.009.051-.028.1-.036.15s-.009.13-.018.192c-.038.272-.061.547-.074.826,0,.1-.014.2-.015.3,0,.043-.007.084-.007.127,0,.184.018.363.028.544A10.906,10.906,0,0,0,34.056,60.629ZM42.929,64.1a7.009,7.009,0,0,1-7.06-6.856c0-.09,0-.179.006-.269,0-.127.009-.253.02-.379.008-.106.021-.212.034-.317s.031-.214.049-.319a6.616,6.616,0,0,1,.214-.886c.009-.031.024-.06.034-.09a6.7,6.7,0,0,1,.356-.848l.039-.079a7.19,7.19,0,0,1,2.85-2.938l.013-.008a7.043,7.043,0,0,1,.859-.4c.077-.03.154-.057.231-.083a6.691,6.691,0,0,1,.8-.23c.038-.008.073-.021.111-.028a7.34,7.34,0,0,1,1.022-.125c.065,0,.13-.008.2-.009a7.174,7.174,0,0,1,1.035.038l.058.009a7.033,7.033,0,0,1,1.068.214l.015,0a7.514,7.514,0,0,1,1.979.9l.047.032c.041.028.079.059.119.087a7.084,7.084,0,0,1,.563.439c.044.037.086.076.128.114a7.131,7.131,0,0,1,.513.516l.049.053a6.912,6.912,0,0,1,.956,1.409c.06.116.12.232.173.352.089.2.167.407.237.614,0,.015.012.03.016.045.068.209.124.422.171.636,0,.017.009.034.013.05.045.213.078.428.1.644,0,.02.007.037.009.057A6.823,6.823,0,0,1,50,57.16a6.9,6.9,0,0,1-.04.732c0,.036-.012.069-.016.105-.026.209-.058.417-.1.622,0,.023-.013.045-.018.068a6.721,6.721,0,0,1-.184.652l-.011.028A7.032,7.032,0,0,1,42.929,64.1Zm15.306-3.469a23.487,23.487,0,0,1-6.286-.816.014.014,0,0,0,0-.007,9.137,9.137,0,0,0,.264-1.154c.015-.094.031-.186.044-.281a9.133,9.133,0,0,0,.091-1.211c0-.3-.016-.6-.046-.892-.011-.106-.029-.209-.044-.315-.02-.149-.034-.3-.061-.446a34.483,34.483,0,0,0,6.038.5c2.814,0,6.882-.353,9.424-1.456l.007,3.687C67.364,58.95,63.791,60.629,58.235,60.629Zm0-13.877c-5.537,0-9.1-1.666-9.413-2.306,0-1.318,0-2.656,0-3.771.029.013.065.023.1.036.281.118.576.229.889.331.016.006.033.012.051.016.32.1.658.193,1,.278.113.028.23.053.345.079.252.057.506.111.766.16.126.024.251.047.378.069.286.05.573.094.864.135l.274.04c.38.05.761.094,1.139.13.1.009.188.016.284.024.291.025.578.049.863.067l.365.022c.264.015.52.027.775.036l.319.012c.345.009.682.015,1,.015s.653-.006,1-.015l.324-.012c.252-.009.507-.021.77-.036l.37-.022q.427-.028.864-.068c.094-.008.186-.015.28-.024.379-.037.759-.08,1.14-.131l.278-.04q.434-.061.862-.135c.128-.022.253-.046.379-.069.26-.05.516-.1.769-.161.115-.027.231-.051.344-.079.352-.087.7-.179,1.022-.283.016-.006.031-.012.047-.016.307-.1.6-.209.875-.325.033-.014.072-.025.1-.039l.007,3.687C67.364,45.073,63.791,46.752,58.235,46.752Z" transform="translate(0 3.128)" fill="#fff"/>
  </g>
</svg>
