<svg id="Component_15_1" data-name="Component 15 – 1" xmlns="http://www.w3.org/2000/svg" width="180" height="180" viewBox="0 0 180 180">
  <circle id="Ellipse_27" data-name="Ellipse 27" cx="90" cy="90" r="90" fill="#66c4d3" opacity="0.8"/>
  <g id="staff" transform="translate(57 59)">
    <path id="Path_90" data-name="Path 90" d="M49.1,232a1.1,1.1,0,0,0-1.1,1.1v17.635a1.1,1.1,0,0,0,2.2,0V233.1A1.1,1.1,0,0,0,49.1,232Zm0,0" transform="translate(-41.386 -200.036)" fill="#fff"/>
    <path id="Path_91" data-name="Path 91" d="M15.916,23.146a1.1,1.1,0,0,0,1.1-1.1.951.951,0,0,0-.066-.353A1.1,1.1,0,0,0,16,20.92a5.511,5.511,0,0,1-4.982-5.07.415.415,0,0,0,0-.121v-.121a.967.967,0,0,1,0-.177V9.92h4.519a1.1,1.1,0,1,0,0-2.2H9.92a1.1,1.1,0,0,0-1.1,1.1v4.916a6.612,6.612,0,0,1-2.2-4.916V2.2H19.84a6.613,6.613,0,0,1,5.423,2.832,1.1,1.1,0,0,0,1.808-1.256A8.817,8.817,0,0,0,19.84,0H6.614a2.2,2.2,0,0,0-2.2,2.2V8.818a8.818,8.818,0,0,0,4.475,7.715,7.717,7.717,0,0,0,2.2,4.409H7.716A7.715,7.715,0,0,0,0,28.657V50.7a1.1,1.1,0,0,0,2.2,0V28.657a5.511,5.511,0,0,1,5.511-5.511Zm0,0" transform="translate(0 0)" fill="#fff"/>
    <path id="Path_92" data-name="Path 92" d="M91.3,189.246l-.794-3.042H94.1a1.1,1.1,0,0,0,0-2.2h-5a1.094,1.094,0,0,0-1.069,1.367l1.1,4.409a1.118,1.118,0,0,0,2.172-.53Zm0,0" transform="translate(-75.87 -158.649)" fill="#fff"/>
    <path id="Path_93" data-name="Path 93" d="M417.1,232a1.1,1.1,0,0,0-1.1,1.1v17.635a1.1,1.1,0,0,0,2.2,0V233.1A1.1,1.1,0,0,0,417.1,232Zm0,0" transform="translate(-358.685 -200.036)" fill="#fff"/>
    <path id="Path_94" data-name="Path 94" d="M310.589,21.691V11.022A11.022,11.022,0,0,0,299.566,0h-2.2a11.023,11.023,0,0,0-8.421,3.935,1.1,1.1,0,1,0,1.687,1.411A8.817,8.817,0,0,1,297.362,2.2h2.2a8.817,8.817,0,0,1,8.818,8.818v10a4.492,4.492,0,0,1-.76-.066h-3.747a7.715,7.715,0,0,0,2.3-5.522V8.817a1.1,1.1,0,0,0-1.1-1.1h-8.289a1.1,1.1,0,1,0,0,2.2h7.186v5.511a5.511,5.511,0,0,1-4.982,5.511,1.1,1.1,0,0,0-.948.772.951.951,0,0,0-.066.353,1.1,1.1,0,0,0,1.1,1.1h3.02L297.913,30.7a1.105,1.105,0,0,0,1.929,1.08l4.783-8.63h2.9a5.4,5.4,0,0,1,1.6.308h.088a5.512,5.512,0,0,1,3.582,5.2V50.7a1.1,1.1,0,0,0,2.2,0V28.657a7.715,7.715,0,0,0-4.409-6.966Zm0,0" transform="translate(-248.864)" fill="#fff"/>
    <path id="Path_95" data-name="Path 95" d="M139.555,80.249h-3.693a9.916,9.916,0,0,0,3.428-5.456,8.818,8.818,0,0,0,4.674-7.77v-2.2A8.817,8.817,0,0,0,135.146,56H117.511a2.2,2.2,0,0,0-2.2,2.2v8.818a8.818,8.818,0,0,0,4.674,7.77,9.917,9.917,0,0,0,3.428,5.456h-3.693A7.715,7.715,0,0,0,112,87.964v22.044a1.1,1.1,0,0,0,2.2,0V87.964a5.511,5.511,0,0,1,5.511-5.511h19.84a5.511,5.511,0,0,1,5.511,5.511v22.044a1.1,1.1,0,0,0,2.2,0V87.964A7.715,7.715,0,0,0,139.555,80.249ZM117.511,67.022V58.2h17.635a6.614,6.614,0,0,1,6.613,6.613v2.2a6.612,6.612,0,0,1-2.2,4.916V63.715a1.1,1.1,0,0,0-1.1-1.1H120.818a1.1,1.1,0,0,0-1.1,1.1v8.222A6.612,6.612,0,0,1,117.511,67.022Zm4.541,6.966a.415.415,0,0,0,0-.121,9.262,9.262,0,0,1-.132-1.168V64.818h15.431V72.7a9.445,9.445,0,0,1-.121,1.168.382.382,0,0,0,0,.121,7.716,7.716,0,0,1-15.167,0Zm0,0" transform="translate(-96.569 -48.285)" fill="#fff"/>
    <path id="Path_96" data-name="Path 96" d="M215.955,263.74a1.1,1.1,0,0,0-1.334.8l-.892,3.6h-2.69l-.859-3.571a1.1,1.1,0,1,0-2.138.53l1.1,4.232L207.975,281.7a1.1,1.1,0,0,0,.375.926l3.307,2.888a1.1,1.1,0,0,0,1.455,0l3.307-2.888a1.1,1.1,0,0,0,.375-.926l-1.1-12.356,1.1-4.232a1.1,1.1,0,0,0-.837-1.367Zm-3.571,19.476-2.2-1.841.97-11.022h2.381l1.058,11.022Zm0,0" transform="translate(-179.317 -227.367)" fill="#fff"/>
    <path id="Path_97" data-name="Path 97" d="M161.1,312a1.1,1.1,0,0,0-1.1,1.1v17.635a1.1,1.1,0,0,0,2.2,0V313.1A1.1,1.1,0,0,0,161.1,312Zm0,0" transform="translate(-137.955 -269.014)" fill="#fff"/>
    <path id="Path_98" data-name="Path 98" d="M305.1,312a1.1,1.1,0,0,0-1.1,1.1v17.635a1.1,1.1,0,0,0,2.2,0V313.1A1.1,1.1,0,0,0,305.1,312Zm0,0" transform="translate(-262.116 -269.014)" fill="#fff"/>
  </g>
</svg>
