<svg id="Component_16_1" data-name="Component 16 – 1" xmlns="http://www.w3.org/2000/svg" width="180" height="180" viewBox="0 0 180 180">
  <circle id="Ellipse_27" data-name="Ellipse 27" cx="90" cy="90" r="90" fill="#282828" opacity="0.8"/>
  <g id="graduation-cap" transform="translate(54 21.25)">
    <g id="Group_73" data-name="Group 73" transform="translate(0 41.75)">
      <path id="Path_55" data-name="Path 55" d="M68,56.336,39.96,42.655a11.5,11.5,0,0,0-8.943,0L2.336,56.336C.322,57.3,0,58.669,0,59.393s.322,2.012,2.336,3.058l2.336,1.127V76.453a3.943,3.943,0,0,0-2.5,3.621A4,4,0,0,0,4.592,83.7L.967,95.2H11.118L7.493,83.7a3.9,3.9,0,0,0-.081-7.242V64.946l4.27,2.092V83.776a1.3,1.3,0,0,0,.242.724,29.269,29.269,0,0,0,23.2,10.7A29.1,29.1,0,0,0,58.249,84.5a1.3,1.3,0,0,0,.242-.724V67.119L68,62.451c2.014-.966,2.336-2.334,2.336-3.058A3.6,3.6,0,0,0,68,56.336ZM55.912,83.374a26.952,26.952,0,0,1-20.786,9.335,26.952,26.952,0,0,1-20.786-9.335V68.165l16.677,7.967a10.876,10.876,0,0,0,4.431.885,9.82,9.82,0,0,0,4.512-.966l15.952-7.806ZM66.869,60.2,57.2,64.946a.926.926,0,0,0-.886.483l-17.483,8.45a8.955,8.955,0,0,1-6.767,0l-21.511-10.3,24.734-2.9a1.253,1.253,0,1,0-.242-2.495L6.365,61.566,3.464,60.2a1.624,1.624,0,0,1-.886-.724c0-.08.161-.4.886-.724L32.146,44.989a8.331,8.331,0,0,1,3.3-.644,8.174,8.174,0,0,1,3.384.644l28.037,13.68c.725.322.886.644.886.8A2.215,2.215,0,0,1,66.869,60.2Z" transform="translate(0 -41.75)" fill="#fff"/>
    </g>
  </g>
</svg>
