<svg id="Component_32_1" data-name="Component 32 – 1" xmlns="http://www.w3.org/2000/svg" width="94.667" height="52.455" viewBox="0 0 94.667 52.455">
  <path id="Path_96" data-name="Path 96" d="M570.333-43.939S556.389-44.8,551.4-51.52s-4.571-13.969,4.648-22.3c2.526-2.283,4.741-4.174,6.79-5.851,4.827-3.951.931-4.583-7.891-2.176-8.11,2.213-18.331,5.732-26.4,10.8a65.714,65.714,0,0,0-17.25,16.2c-4.508,5.978-12.321,10.905-27.309,10.905C523.855-43.977,570.333-43.939,570.333-43.939Z" transform="translate(-483.98 96.394)" fill="#fff"/>
  <path id="Path_97" data-name="Path 97" d="M1007,628l73.333-51.667L1074.5,608.5l13.167,19.5Z" transform="translate(-993 -576.333)" fill="#fff" opacity="0.9"/>
</svg>
