<svg xmlns="http://www.w3.org/2000/svg" width="72" height="59" viewBox="0 0 72 59">
  <g id="g10" transform="translate(-488.598 1111.388)">
    <g id="g12" transform="translate(501.979 -1111.388)">
      <path id="path16" d="M544.4-889.154c-6.574,0-11.923-5.087-11.923-11.34,0-4.873-4.226-8.837-9.419-8.837s-9.419,3.964-9.419,8.837,4.225,8.837,9.419,8.837a9.763,9.763,0,0,0,6.273-2.245,1.252,1.252,0,0,1,1.763.155,1.252,1.252,0,0,1-.155,1.763,12.27,12.27,0,0,1-7.881,2.83c-6.574,0-11.922-5.087-11.922-11.34s5.348-11.34,11.922-11.34,11.923,5.087,11.923,11.34c0,4.873,4.226,8.837,9.419,8.837s9.419-3.964,9.419-8.837-4.225-8.837-9.419-8.837a9.764,9.764,0,0,0-6.273,2.245,1.252,1.252,0,0,1-1.763-.155,1.252,1.252,0,0,1,.155-1.763,12.271,12.271,0,0,1,7.881-2.83c6.574,0,11.923,5.087,11.923,11.34s-5.348,11.34-11.923,11.34" transform="translate(-511.132 930.965)" fill="#66c4d3"/>
      <path id="path18" d="M671.983-1109.884a5.518,5.518,0,0,0-5.512,5.512,5.518,5.518,0,0,0,5.512,5.512,5.518,5.518,0,0,0,5.512-5.512A5.518,5.518,0,0,0,671.983-1109.884Zm0,13.527a8.024,8.024,0,0,1-8.015-8.015,8.024,8.024,0,0,1,8.015-8.015,8.024,8.024,0,0,1,8.015,8.015,8.024,8.024,0,0,1-8.015,8.015" transform="translate(-649.39 1112.388)" fill="#282828"/>
    </g>
    <text id="CPY_Coalition" data-name="CPY Coalition" transform="translate(488.598 -1054.388)" fill="#282828" font-size="11" font-family="Ubuntu-Bold, Ubuntu" font-weight="700"><tspan x="0" y="0">CPY Coalition</tspan></text>
  </g>
</svg>
