<svg xmlns="http://www.w3.org/2000/svg" width="15.63" height="15.114" viewBox="0 0 15.63 15.114">
  <path id="Path_36" data-name="Path 36" d="M16.983,70.42q0,4.866-5.93,9.958l-1-1.063q4.351-3.867,4.254-6.929l-.032-.9q-3.964,0-3.964-3.255a2.756,2.756,0,0,1,.951-2.079,3.063,3.063,0,0,1,2.143-.886Q16.983,65.264,16.983,70.42Zm-8.7,0q0,4.866-5.93,9.958l-1-1.063Q5.7,75.447,5.607,72.386l-.032-.9q-3.964,0-3.964-3.255a2.756,2.756,0,0,1,.951-2.079,3.063,3.063,0,0,1,2.143-.886Q8.282,65.264,8.282,70.42Z" transform="translate(-1.354 -65.264)" fill="#282828" opacity="0.2"/>
</svg>
