<svg xmlns="http://www.w3.org/2000/svg" width="15.63" height="15.114" viewBox="0 0 15.63 15.114">
  <path id="Path_35" data-name="Path 35" d="M1.354,75.222q0-4.866,5.93-9.958l1,1.063q-4.351,3.867-4.254,6.929l.032.9q3.964,0,3.964,3.255a2.756,2.756,0,0,1-.951,2.079,3.063,3.063,0,0,1-2.143.886Q1.354,80.378,1.354,75.222Zm8.7,0q0-4.866,5.93-9.958l1,1.063q-4.351,3.867-4.254,6.929l.032.9q3.964,0,3.964,3.255a2.756,2.756,0,0,1-.951,2.079,3.063,3.063,0,0,1-2.143.886Q10.055,80.378,10.055,75.222Z" transform="translate(-1.354 -65.264)" fill="#282828" opacity="0.2"/>
</svg>
