<svg xmlns="http://www.w3.org/2000/svg" width="25.333" height="19.373" viewBox="0 0 25.333 19.373">
  <path id="Path_93" data-name="Path 93" d="M11.875,68.833H9.5V64.8a.809.809,0,0,0-.505-.754.786.786,0,0,0-.872.211L.205,73.134a.819.819,0,0,0,0,1.085L8.122,83.1a.788.788,0,0,0,.586.265.791.791,0,0,0,.792-.807V78.519h2.2a18.725,18.725,0,0,1,12.325,4.649.778.778,0,0,0,.846.119.805.805,0,0,0,.461-.733A13.607,13.607,0,0,0,11.875,68.833ZM11.7,76.9H8.708a.8.8,0,0,0-.792.807v2.756L1.862,73.676l6.055-6.791V69.64a.8.8,0,0,0,.792.807h3.167a11.685,11.685,0,0,1,8.4,3.545A12.1,12.1,0,0,1,23.626,80.8,20.278,20.278,0,0,0,11.7,76.9Z" transform="translate(0 -63.99)" fill="#66c4d3"/>
</svg>
